<svg xmlns="http://www.w3.org/2000/svg" viewBox="0 0 800 320">
<rect width="800" height="320" fill="#f5f4f0"/>
<ellipse cx="398" cy="298" rx="315" ry="11" fill="rgba(0,0,0,.10)"/>

<!-- Cab body -->
<path d="M50,260 L50,165 L88,86 L105,60 L235,60 L235,260 Z" fill="#161616"/>
<!-- Cab top fairing -->
<rect x="105" y="50" width="130" height="12" rx="4" fill="#242424"/>
<!-- Windshield -->
<path d="M55,165 L92,88 L108,82 L223,82 L223,165 Z" fill="#1a2d44" opacity=".88"/>
<!-- Cab window strip -->
<rect x="108" y="82" width="115" height="83" rx="4" fill="#1a2d44" opacity=".80"/>
<!-- Cab door line -->
<line x1="175" y1="78" x2="175" y2="260" stroke="#1e1e1e" stroke-width="2"/>
<!-- Front light -->
<rect x="42" y="160" width="10" height="26" rx="3" fill="#f0c040" opacity=".8"/>
<!-- Bumper -->
<rect x="40" y="222" width="16" height="36" rx="4" fill="#1e1e1e"/>
<!-- Grill -->
<rect x="38" y="170" width="16" height="130" rx="2" fill="#1e1e1e"/>
<!-- Mirror -->
<rect x="32" y="98" width="14" height="20" rx="3" fill="#1e1e1e"/>

<rect x="232" y="60" width="6" height="200" fill="#0f0f0f"/>

<!-- Box body -->
<rect x="236" y="60" width="478" height="200" fill="#161616"/>
<rect x="236" y="60" width="478" height="10" fill="#242424"/>
<!-- Body vertical lines -->
<line x1="393" y1="60" x2="393" y2="260" stroke="#1e1e1e" stroke-width="2"/>
<line x1="551" y1="60" x2="551" y2="260" stroke="#1e1e1e" stroke-width="2"/>
<!-- Red stripe body -->
<rect x="236" y="185" width="478" height="16" fill="#C1372A"/>
<text x="475" y="228" font-family="Arial Black,Arial,sans-serif" font-size="17" font-weight="900" fill="white" text-anchor="middle" letter-spacing="1.5">URGENCE ABSOLUE</text><text x="475" y="250" font-family="Arial,sans-serif" font-size="9" fill="rgba(255,255,255,.4)" text-anchor="middle" letter-spacing="2">GROUPE L.P.E</text>
<!-- Rear lights -->
<rect x="714" y="80" width="12" height="32" rx="3" fill="#C1372A"/>


<rect x="50" y="260" width="676" height="10" rx="2" fill="#0f0f0f"/>

<!-- 3 axles: 1 front + 2 rear tandem -->
<ellipse cx="165" cy="260" rx="58" ry="12" fill="#0f0f0f"/>
<ellipse cx="580" cy="260" rx="58" ry="12" fill="#0f0f0f"/>
<ellipse cx="648" cy="260" rx="58" ry="12" fill="#0f0f0f"/>
<circle cx="165" cy="278" r="50" fill="#0f0f0f"/><circle cx="165" cy="278" r="40.0" fill="#1a1a1a"/><circle cx="165" cy="278" r="26.0" fill="#222"/><line x1="178.0" y1="285.5" x2="198.8" y2="297.5" stroke="#2e2e2e" stroke-width="3.5"/><line x1="165.0" y1="293.0" x2="165.0" y2="317.0" stroke="#2e2e2e" stroke-width="3.5"/><line x1="152.0" y1="285.5" x2="131.2" y2="297.5" stroke="#2e2e2e" stroke-width="3.5"/><line x1="152.0" y1="270.5" x2="131.2" y2="258.5" stroke="#2e2e2e" stroke-width="3.5"/><line x1="165.0" y1="263.0" x2="165.0" y2="239.0" stroke="#2e2e2e" stroke-width="3.5"/><line x1="178.0" y1="270.5" x2="198.8" y2="258.5" stroke="#2e2e2e" stroke-width="3.5"/><circle cx="165" cy="278" r="10.5" fill="#333"/><circle cx="165" cy="278" r="4.0" fill="#666"/>
<circle cx="580" cy="278" r="50" fill="#0f0f0f"/><circle cx="580" cy="278" r="40.0" fill="#1a1a1a"/><circle cx="580" cy="278" r="26.0" fill="#222"/><line x1="593.0" y1="285.5" x2="613.8" y2="297.5" stroke="#2e2e2e" stroke-width="3.5"/><line x1="580.0" y1="293.0" x2="580.0" y2="317.0" stroke="#2e2e2e" stroke-width="3.5"/><line x1="567.0" y1="285.5" x2="546.2" y2="297.5" stroke="#2e2e2e" stroke-width="3.5"/><line x1="567.0" y1="270.5" x2="546.2" y2="258.5" stroke="#2e2e2e" stroke-width="3.5"/><line x1="580.0" y1="263.0" x2="580.0" y2="239.0" stroke="#2e2e2e" stroke-width="3.5"/><line x1="593.0" y1="270.5" x2="613.8" y2="258.5" stroke="#2e2e2e" stroke-width="3.5"/><circle cx="580" cy="278" r="10.5" fill="#333"/><circle cx="580" cy="278" r="4.0" fill="#666"/>
<circle cx="648" cy="278" r="50" fill="#0f0f0f"/><circle cx="648" cy="278" r="40.0" fill="#1a1a1a"/><circle cx="648" cy="278" r="26.0" fill="#222"/><line x1="661.0" y1="285.5" x2="681.8" y2="297.5" stroke="#2e2e2e" stroke-width="3.5"/><line x1="648.0" y1="293.0" x2="648.0" y2="317.0" stroke="#2e2e2e" stroke-width="3.5"/><line x1="635.0" y1="285.5" x2="614.2" y2="297.5" stroke="#2e2e2e" stroke-width="3.5"/><line x1="635.0" y1="270.5" x2="614.2" y2="258.5" stroke="#2e2e2e" stroke-width="3.5"/><line x1="648.0" y1="263.0" x2="648.0" y2="239.0" stroke="#2e2e2e" stroke-width="3.5"/><line x1="661.0" y1="270.5" x2="681.8" y2="258.5" stroke="#2e2e2e" stroke-width="3.5"/><circle cx="648" cy="278" r="10.5" fill="#333"/><circle cx="648" cy="278" r="4.0" fill="#666"/>
</svg>